<?xml version="1.0" encoding="UTF-8"?>
<svg version="1.1" xmlns="http://www.w3.org/2000/svg" width="64" height="64">
<path d="M0 0 C1.0209375 0.2165625 1.0209375 0.2165625 2.0625 0.4375 C1.10520084 1.56338014 0.14662105 2.6881715 -0.8125 3.8125 C-1.34617188 4.43898438 -1.87984375 5.06546875 -2.4296875 5.7109375 C-3.55182007 6.99586651 -4.73121975 8.23121975 -5.9375 9.4375 C-1.48809632 10.4557021 2.51450734 11.00474412 7.0625 10.4375 C10.18707237 8.12129555 12.41230214 5.68697575 14.84375 2.66015625 C17.0625 0.4375 17.0625 0.4375 19.84375 0.12109375 C20.5759375 0.22550781 21.308125 0.32992188 22.0625 0.4375 C21.67578125 0.88480469 21.2890625 1.33210938 20.890625 1.79296875 C17.87859925 5.2896026 14.91928969 8.81157463 12.0625 12.4375 C13.49163847 13.16255558 14.93120658 13.86708435 16.375 14.5625 C17.17550781 14.95695313 17.97601563 15.35140625 18.80078125 15.7578125 C19.92033203 16.09425781 19.92033203 16.09425781 21.0625 16.4375 C22.0525 15.7775 23.0425 15.1175 24.0625 14.4375 C24.61725643 18.73466089 24.94302702 22.67956839 22.9609375 26.63671875 C19.59361755 30.85830952 15.95304146 33.08752427 11.10546875 35.3671875 C2.96798987 39.65064141 -2.71720414 45.70932116 -8.9375 52.375 C-10.57344713 54.11973689 -12.21377332 55.85893884 -13.87084961 57.58363342 C-14.89077905 58.64559304 -15.89887273 59.71909043 -16.89282227 60.80540466 C-19.18792861 63.19941105 -20.42628925 64.37882136 -23.78125 64.76391602 C-24.4928125 64.65619873 -25.204375 64.54848145 -25.9375 64.4375 C-21.55307474 59.18575074 -16.92907907 54.30527527 -12.0625 49.5 C-11.37414062 48.81615234 -10.68578125 48.13230469 -9.9765625 47.42773438 C-8.29917911 45.76199948 -6.61866658 44.09941658 -4.9375 42.4375 C-9.3925 42.9325 -9.3925 42.9325 -13.9375 43.4375 C-13.9375 42.1175 -13.9375 40.7975 -13.9375 39.4375 C-15.2575 40.0975 -16.5775 40.7575 -17.9375 41.4375 C-17.6075 42.4275 -17.2775 43.4175 -16.9375 44.4375 C-18.5546875 46.8125 -18.5546875 46.8125 -20.8125 49.4375 C-23.97766455 53.08989956 -23.97766455 53.08989956 -25.9375 57.4375 C-26.948125 57.14875 -27.95875 56.86 -29 56.5625 C-33.32849862 56.42508735 -33.79525371 56.69122109 -36.875 59.375 C-37.91393691 60.37740286 -38.94118079 61.39272758 -39.9375 62.4375 C-40.1875 60.1875 -40.1875 60.1875 -39.9375 57.4375 C-37.9375 55.125 -37.9375 55.125 -35.9375 53.4375 C-36.370625 52.57125 -36.370625 52.57125 -36.8125 51.6875 C-37.369375 50.57375 -37.369375 50.57375 -37.9375 49.4375 C-38.28167969 48.86 -38.62585937 48.2825 -38.98046875 47.6875 C-41.21870732 42.42535545 -40.97086362 35.45231329 -39.1328125 30.08984375 C-36.34914009 25.26161194 -32.25232207 21.75696635 -28.0234375 18.19921875 C-27.33507813 17.61785156 -26.64671875 17.03648438 -25.9375 16.4375 C-25.33164062 15.96957031 -24.72578125 15.50164063 -24.1015625 15.01953125 C-22.63244075 13.39945879 -22.63244075 13.39945879 -23.25 10.75 C-23.5903125 9.6053125 -23.5903125 9.6053125 -23.9375 8.4375 C-22.54337891 8.45103516 -22.54337891 8.45103516 -21.12109375 8.46484375 C-13.98844184 8.51418939 -13.98844184 8.51418939 -7.625 5.8125 C-6.49337217 4.55962633 -5.39386607 3.27663546 -4.3359375 1.9609375 C-2.9375 0.4375 -2.9375 0.4375 0 0 Z M7.0625 19.4375 C7.0625 20.4275 7.0625 21.4175 7.0625 22.4375 C8.0525 22.1075 9.0425 21.7775 10.0625 21.4375 C9.7325 20.7775 9.4025 20.1175 9.0625 19.4375 C8.4025 19.4375 7.7425 19.4375 7.0625 19.4375 Z M-34.9375 40.4375 C-34.9375 41.0975 -34.9375 41.7575 -34.9375 42.4375 C-30.4825 43.4275 -30.4825 43.4275 -25.9375 44.4375 C-23.9575 42.1275 -21.9775 39.8175 -19.9375 37.4375 C-21.6867214 37.35607073 -23.43704542 37.29811459 -25.1875 37.25 C-26.16203125 37.21519531 -27.1365625 37.18039063 -28.140625 37.14453125 C-31.33456651 37.47909216 -32.66630304 38.20415633 -34.9375 40.4375 Z " fill="#010101" transform="translate(39.9375,-0.43750000000000006)"/>
<path d="M0 0 C0.33081055 2.12768555 0.33081055 2.12768555 0 5 C-1.70203079 7.19904254 -3.32474686 9.02631352 -5.29296875 10.95703125 C-5.83601151 11.50485764 -6.37905426 12.05268402 -6.93855286 12.61711121 C-8.08839126 13.77034739 -9.24454956 14.91731199 -10.40649414 16.05834961 C-12.18149179 17.80658238 -13.92825427 19.57986429 -15.67382812 21.35742188 C-16.79527536 22.475565 -17.91827268 23.59215605 -19.04296875 24.70703125 C-19.56400681 25.23819046 -20.08504486 25.76934967 -20.62187195 26.31660461 C-23.04549623 28.66385392 -24.46364928 29.93822735 -27.87231445 30.33081055 C-28.57445068 30.22164307 -29.27658691 30.11247559 -30 30 C-24.95241573 23.85397771 -19.40441039 18.25128263 -13.77563477 12.64526367 C-12.17019485 11.04525338 -10.57025692 9.4398769 -8.97070312 7.83398438 C-7.95344609 6.81738694 -6.93587953 5.8010991 -5.91796875 4.78515625 C-4.99781982 3.86613525 -4.0776709 2.94711426 -3.12963867 2.00024414 C-1 0 -1 0 0 0 Z " fill="#444440" transform="translate(64,34)"/>
<path d="M0 0 C-3.59517648 3.71880703 -7.20650069 7.42085766 -10.83374023 11.10839844 C-12.06520273 12.36499944 -13.29213971 13.62605218 -14.5144043 14.89160156 C-16.27261056 16.71048486 -18.0464955 18.51271284 -19.82421875 20.3125 C-20.6385865 21.16557739 -20.6385865 21.16557739 -21.46940613 22.03588867 C-23.92512454 24.49339001 -25.37214133 25.92266625 -28.88598633 26.35546875 C-29.58361084 26.23816406 -30.28123535 26.12085937 -31 26 C-26.07536079 20.08080824 -20.80149611 14.58488993 -15.375 9.125 C-14.529375 8.25875 -13.68375 7.3925 -12.8125 6.5 C-11.99523437 5.67757812 -11.17796875 4.85515625 -10.3359375 4.0078125 C-9.59907715 3.26160645 -8.8622168 2.51540039 -8.10302734 1.74658203 C-5.30561785 -0.57669026 -3.37088647 -1.68544323 0 0 Z " fill="#444440" transform="translate(45,38)"/>
<path d="M0 0 C-4.37625212 5.23380697 -8.97545497 10.12876938 -13.8125 14.9375 C-14.49248047 15.62134766 -15.17246094 16.30519531 -15.87304688 17.00976562 C-16.51951172 17.65494141 -17.16597656 18.30011719 -17.83203125 18.96484375 C-18.41702393 19.5487085 -19.0020166 20.13257324 -19.60473633 20.73413086 C-21 22 -21 22 -22 22 C-22.30391087 18.92972953 -22.30970547 17.44498147 -20.51879883 14.87182617 C-19.49822388 13.84279175 -19.49822388 13.84279175 -18.45703125 12.79296875 C-17.71259766 12.04208984 -16.96816406 11.29121094 -16.20117188 10.51757812 C-15.41291016 9.74865234 -14.62464844 8.97972656 -13.8125 8.1875 C-13.04357422 7.39923828 -12.27464844 6.61097656 -11.48242188 5.79882812 C-10.73154297 5.05439453 -9.98066406 4.30996094 -9.20703125 3.54296875 C-8.5210083 2.86258545 -7.83498535 2.18220215 -7.12817383 1.48120117 C-4.55501853 -0.30970547 -3.07027047 -0.30391087 0 0 Z " fill="#444440" transform="translate(22,0)"/>
<path d="M0 0 C0.71542969 0.103125 1.43085937 0.20625 2.16796875 0.3125 C-1.34100394 4.49673892 -4.9126366 8.50838166 -8.83203125 12.3125 C-10.15203125 11.6525 -11.47203125 10.9925 -12.83203125 10.3125 C-11.28558477 8.63092713 -9.71922404 6.96765155 -8.14453125 5.3125 C-7.27441406 4.384375 -6.40429688 3.45625 -5.5078125 2.5 C-2.83203125 0.3125 -2.83203125 0.3125 0 0 Z " fill="#444440" transform="translate(59.83203125,-0.3125)"/>
<path d="M0 0 C-6.15034169 7.48291572 -6.15034169 7.48291572 -10 10 C-10.99 9.34 -11.98 8.68 -13 8 C-11.78719339 6.65176834 -10.55401909 5.32183918 -9.3125 4 C-8.62800781 3.2575 -7.94351563 2.515 -7.23828125 1.75 C-4.58663012 -0.3231932 -3.2828659 -0.36795695 0 0 Z " fill="#444440" transform="translate(42,0)"/>
<path d="M0 0 C0.3125 2.1875 0.3125 2.1875 0 5 C-2.1875 7.8125 -2.1875 7.8125 -5 10 C-7.8125 10.3125 -7.8125 10.3125 -10 10 C-9.06409496 8.8944811 -8.12620142 7.79064547 -7.1875 6.6875 C-6.66542969 6.07261719 -6.14335938 5.45773438 -5.60546875 4.82421875 C-1.35974304 0 -1.35974304 0 0 0 Z " fill="#444440" transform="translate(64,54)"/>
<path d="M0 0 C0.99 0.99 1.98 1.98 3 3 C1.8572081 4.16964602 0.71068285 5.33564556 -0.4375 6.5 C-1.07558594 7.1496875 -1.71367188 7.799375 -2.37109375 8.46875 C-4 10 -4 10 -5 10 C-5.3125 7.8125 -5.3125 7.8125 -5 5 C-2.5 2.1875 -2.5 2.1875 0 0 Z " fill="#444440" transform="translate(5,52)"/>
<path d="M0 0 C1.32 0.66 2.64 1.32 4 2 C2.02579865 4.52259061 1.03254358 4.9929808 -2.1875 5.6875 C-3.5796875 5.8421875 -3.5796875 5.8421875 -5 6 C-3.35 4.02 -1.7 2.04 0 0 Z " fill="#444440" transform="translate(20,37)"/>
<path d="M0 0 C0.99 0.495 0.99 0.495 2 1 C1.01 1.495 1.01 1.495 0 2 C0 1.34 0 0.68 0 0 Z " fill="#444440" transform="translate(0,0)"/>
</svg>
